<svg width="118" height="40" viewBox="0 0 118 40" fill="none" xmlns="http://www.w3.org/2000/svg">
<path d="M30.1186 0C23.6857 0 16.599 4.04957 12.1487 7.87767L12.5072 8.40496C19.4042 3.42737 28.9902 0.189822 31.6372 5.04086C33.0293 7.60348 30.667 12.7709 27.324 16.8521C28.1255 15.0593 27.5982 11.5792 22.9475 11.5792C15.2175 11.5792 0 22.1039 0 32.8711C0 37.1948 2.91061 40 7.69838 40C20.5642 40 37.9647 18.3812 37.9647 7.51912C37.9647 3.68047 35.8133 0 30.1186 0ZM12.1065 28.368C9.88137 28.368 8.81625 26.6175 9.36462 24.5821C10.5247 20.3744 17.9172 14.1418 22.9686 14.1418C26.6385 14.1418 26.3538 17.5165 24.2025 20.406L23.0108 21.7559C18.7398 26.0691 14.7851 28.368 12.1065 28.368Z" fill="white"/>
<path d="M58.666 11.4528C58.1241 10.7988 57.4484 10.2684 56.6844 9.8973C55.9204 9.52622 55.0858 9.32307 54.2368 9.30151H46.7809L45.5154 14.1526H52.5389L53.2138 14.2369C53.2138 14.2369 53.8677 14.3107 54.2157 14.8064C54.511 15.2177 54.5426 15.8293 54.3422 16.6308L54.0047 17.9068H49.5756C45.7685 17.9068 40.4535 20.7226 39.2618 25.2783C38.9772 26.2414 38.9263 27.2585 39.1134 28.2452C39.3004 29.2319 39.7201 30.1598 40.3375 30.9519C41.4764 32.3861 43.6066 33.1665 45.9267 33.1665H55.2492L57.6958 23.7808L59.4885 16.8628C60.2057 14.142 59.4358 12.4231 58.666 11.4528ZM46.8758 28.3155C46.1376 28.3155 45.5049 28.0518 45.1252 27.5667C44.9213 27.284 44.7857 26.9578 44.7289 26.6138C44.6722 26.2698 44.696 25.9174 44.7983 25.5841C45.0557 24.7576 45.5673 24.0333 46.2604 23.5145C46.9534 22.9956 47.7925 22.7087 48.6581 22.6946H52.7709L51.2945 28.3155H46.8758Z" fill="white"/>
<path d="M110.298 9.30151C108.305 9.30151 106.459 9.91317 104.951 11.0837C103.491 12.2041 102.478 13.808 102.093 15.6079C101.007 19.8262 104.181 21.851 106.733 23.2957C108.568 24.3292 110.15 25.215 109.813 26.5438C109.57 27.4929 109.17 28.3155 106.913 28.3155H100.037L98.7925 33.1665H106.407C108.442 33.1665 110.33 32.7342 111.848 31.5214C113.367 30.2981 114.221 28.6002 114.759 26.5333C115.034 25.6358 115.081 24.6841 114.897 23.7637C114.713 22.8433 114.303 21.9831 113.704 21.2604C112.692 20.1004 111.226 19.2672 109.939 18.5501C108.294 17.6221 106.744 16.7574 107.008 15.6922C107.176 15.0595 107.788 14.1631 109.117 14.1631H115.803L117.058 9.30151H110.298Z" fill="white"/>
<path d="M68.7899 9.30151C66.7967 9.30151 64.9512 9.91317 63.4432 11.0837C61.9837 12.2047 60.9707 13.8084 60.5853 15.6079C59.4991 19.8262 62.6734 21.851 65.2254 23.2957C67.0604 24.3292 68.6422 25.215 68.3048 26.5438C68.0622 27.4929 67.672 28.3155 65.4047 28.3155H58.5289L57.2845 33.1665H64.8985C66.9338 33.1665 68.8215 32.7342 70.3401 31.5214C71.8587 30.2981 72.7234 28.6002 73.2507 26.5333C73.5257 25.6358 73.5733 24.6841 73.3892 23.7637C73.2051 22.8433 72.7951 21.9831 72.1961 21.2604C71.1838 20.1004 69.7179 19.2672 68.4313 18.5501C66.7862 17.6221 65.236 16.7574 65.5101 15.6922C65.6683 15.0595 66.28 14.1631 67.6193 14.1631H74.2948L75.5497 9.30151H68.7899Z" fill="white"/>
<path d="M80.1898 9.30151L73.8835 33.1771H79.209L85.5048 9.30151H80.1898Z" fill="white"/>
<path d="M99.0035 9.30151C89.8181 9.33315 85.0093 15.5024 83.4801 21.2393C81.6768 28.0413 85.2729 33.1771 91.8534 33.1771H96.2616L97.5481 28.326H93.14C90.6829 28.326 87.2977 26.3645 88.6581 21.2393C89.2441 19.2059 90.4735 17.4172 92.1618 16.1415C93.8502 14.8657 95.9066 14.1716 98.0227 14.1631H100.817L102.114 9.30151H99.0035Z" fill="white"/>
</svg>
