<svg width="53" height="53" viewBox="0 0 53 53" fill="none" xmlns="http://www.w3.org/2000/svg">
<g clip-path="url(#clip0_212_9)">
<path fill-rule="evenodd" clip-rule="evenodd" d="M26.7702 52.4596C41.2565 52.4596 53 40.7161 53 26.2298C53 11.7435 41.2565 0 26.7702 0C12.2838 0 0.540344 11.7435 0.540344 26.2298C0.540344 40.7161 12.2838 52.4596 26.7702 52.4596Z" fill="white"/>
<path fill-rule="evenodd" clip-rule="evenodd" d="M13.6553 19.0621V33.9149C13.6553 34.7229 14.2467 35.3778 15.0615 35.3778H38.2419C39.0559 35.3778 39.6482 34.7153 39.6482 33.9149V19.0621C39.6482 18.1753 39.1185 17.4866 38.2419 17.4866H15.0615C14.1511 17.4866 13.6553 18.1922 13.6553 19.0621ZM15.7926 20.3558C15.7926 19.9979 16.0092 19.7931 16.3553 19.7931C16.5693 19.7931 24.9925 25.1304 25.5027 25.4435L26.821 26.2634C27.2389 25.9833 27.6586 25.7439 28.0918 25.4537C28.976 24.8885 36.8433 19.7931 37.0599 19.7931C37.4068 19.7931 37.6226 19.9979 37.6226 20.3558C37.6226 20.7348 36.8924 21.1114 36.4168 21.4016C33.4292 23.2224 30.4424 25.2074 27.4843 27.096C27.3117 27.2128 26.9775 27.4624 26.727 27.4243C26.4478 27.3811 17.8766 21.8746 16.3172 20.9574C16.0828 20.8195 15.7926 20.6934 15.7926 20.3558Z" fill="black"/>
</g>
<defs>
<clipPath id="clip0_212_9">
<rect width="52.4596" height="52.4596" fill="white" transform="translate(0.540344)"/>
</clipPath>
</defs>
</svg>
