<svg width="129" height="64" viewBox="0 0 129 64" fill="none" xmlns="http://www.w3.org/2000/svg">
<path d="M129 24.4095C101.706 4.98069 76.7646 -1.15916 54.534 0.174587C28.1312 1.76129 7.59857 14.8969 0 41.9041C22.1466 63.3872 44.8557 64.6596 60.3991 63.819C92.9825 62.0483 107.548 32.0236 129 24.4069" fill="white"/>
<path d="M102.819 15.5467C100.558 15.5467 100.319 16.2903 100.352 16.6454C100.347 16.693 100.347 16.7409 100.352 16.7885C100.482 17.8284 100.652 18.066 100.66 19.3896C100.655 22.9973 99.6571 25.8079 98.7686 28.6185C98.7203 28.7692 97.697 32.2723 97.5824 33.8871C96.6533 34.6536 95.2914 35.7037 93.4026 35.7037C91.389 35.7037 90.0373 34.5565 90.0373 32.8548V32.676L90.3377 32.653C94.3851 32.3259 96.8035 30.08 96.8035 28.0998C96.8035 28.0743 96.8035 28.0513 96.8035 28.0257C96.8035 28.0002 96.8035 27.9925 96.8035 27.9746C96.8035 26.2704 95.495 25.3327 93.1174 25.3327C87.7183 25.3327 84.8952 28.9328 84.8952 32.4869C84.8952 32.5073 84.8952 32.5227 84.8952 32.5431C84.8952 32.5635 84.8952 32.5891 84.8952 32.6121C84.8876 33.2916 84.9925 33.9677 85.2058 34.6127C84.8736 34.8802 84.458 35.0214 84.0323 35.0113C83.0293 35.0113 82.4285 34.3572 82.4133 33.2636C82.4285 32.4383 82.706 31.5338 82.9758 30.66C83.2457 29.7862 83.5435 28.8178 83.5435 27.9772C83.5435 27.9567 83.5435 27.9388 83.5435 27.9184C83.5435 27.898 83.5435 27.875 83.5435 27.852C83.5435 26.2116 82.5253 25.4144 80.4252 25.4144C78.0298 25.4144 76.1562 26.9475 75.2271 27.8801L74.7969 28.3119L74.6772 27.714C74.6289 27.4789 74.1478 25.4144 71.6734 25.4144C70.4923 25.4144 68.7766 25.7057 66.9387 27.4764C66.4295 27.967 66.2183 27.8826 66.091 27.8443C65.9637 27.806 65.9179 27.6833 65.9052 27.5249C65.9057 27.4846 65.91 27.4444 65.9179 27.4048C66.0089 27.0329 66.0635 26.653 66.0808 26.2704C66.0808 26.2448 66.0808 26.2167 66.0808 26.1861C66.0808 26.1554 66.0808 26.158 66.0808 26.1452C66.0808 25.9459 66.0808 25.4144 65.0295 25.4144C62.4584 25.4144 60.8165 26.112 60.8165 26.5923C60.8165 26.6255 60.8165 26.6562 60.8165 26.6869C60.8157 26.6962 60.8157 26.7056 60.8165 26.715C60.8179 26.865 60.8536 27.0128 60.9209 27.1468C61.0353 27.4042 61.0959 27.6825 61.0991 27.9644C61.0813 29.2164 60.5722 31.401 60.1216 33.3301C59.7525 34.9244 59.3986 36.4319 59.3986 37.0758C59.3973 37.0988 59.3973 37.1218 59.3986 37.1448C59.3973 37.1635 59.3973 37.1823 59.3986 37.201C59.3986 37.6865 59.5539 37.7682 59.9256 37.7682C60.1623 37.7682 60.5773 37.7325 61.0584 37.6916C61.7457 37.6354 62.6035 37.5638 63.329 37.5638C63.8152 37.5638 63.8941 37.4897 63.8941 37.0375C63.8941 35.4457 64.8615 31.8737 65.6761 30.4505C66.5925 28.8433 67.8143 27.8034 68.7944 27.8034C69.5428 27.8034 69.9934 28.363 70.0086 29.3007C69.9908 30.1234 69.6803 31.3294 69.3468 32.607C68.9573 34.1119 68.5144 35.8162 68.5144 37.0758C68.5131 37.0937 68.5131 37.1116 68.5144 37.1295C68.5144 37.1525 68.5144 37.178 68.5144 37.201C68.5144 37.7273 68.7078 37.7682 68.998 37.7682C69.2882 37.7682 69.7261 37.7299 70.2428 37.689C70.9683 37.6303 71.7905 37.5638 72.5339 37.5638C72.9844 37.5638 73.0583 37.5281 73.0583 37.0375C73.0583 35.0624 73.9976 31.9273 74.8758 30.2589C75.6853 28.6747 76.6577 27.8034 77.6377 27.8034C78.4371 27.8034 78.9105 28.3349 78.9334 29.2241C78.9156 29.9574 78.6534 30.6907 78.376 31.4649C78.0298 32.4281 77.6403 33.5089 77.6403 34.8376C77.6403 34.8554 77.6403 34.8708 77.6403 34.8861C77.6403 34.9014 77.6403 34.9372 77.6403 34.9628C77.6403 36.6133 79.0378 37.7733 81.0412 37.7733C83.3322 37.7733 84.9003 36.4038 85.6538 35.5479C86.8884 37.5229 89.3831 37.8934 91.0581 37.8934C94.515 37.8934 96.4369 36.2684 97.6409 35.0369C97.9261 36.7641 99.2192 37.7733 101.225 37.7733C103.262 37.7733 104.392 36.6644 105.219 35.5811C105.435 35.3564 105.58 35.073 105.637 34.766C105.64 34.7457 105.64 34.725 105.637 34.7047C105.637 34.6817 105.649 34.6613 105.649 34.6408C105.649 34.5207 105.568 34.5207 105.53 34.5207C105.492 34.5207 105.42 34.5591 105.242 34.7098L105.158 34.7813C104.782 35.0875 104.311 35.2536 103.827 35.2515C103.002 35.2515 102.579 34.5131 102.572 33.0618C102.592 30.9973 103.45 27.8392 104.282 24.7833C104.417 24.2723 104.537 23.7613 104.651 23.2682C105.234 21.1117 105.649 19.8112 105.649 18.4978C105.649 18.4748 105.649 18.4518 105.649 18.4289C105.649 18.4059 105.649 18.3931 105.649 18.3726C105.649 16.5662 104.809 15.5391 102.826 15.5391L102.819 15.5467ZM93.2167 26.5489C94.0186 26.5489 94.4895 26.9858 94.5099 27.7498C94.4539 28.9609 92.7662 31.0152 90.4369 31.4649L90.05 31.539V31.2604C90.05 28.7207 91.7887 26.5489 93.2116 26.5489" fill="#FF004D"/>
<path d="M26.5352 25.552C26.5352 25.552 26.5352 25.4779 26.5352 25.4396C26.5352 25.3246 26.2933 25.3195 26.2933 25.3195C23.6892 25.3195 22.8313 24.8084 22.8084 23.186C22.951 21.8305 23.1874 20.4867 23.5161 19.1643C23.8445 18.0937 24.374 17.1049 25.1096 17.1049C25.7409 17.1049 25.8733 17.7309 25.9929 18.2342C26.1788 19.0749 26.3595 19.5884 27.2988 19.5884C28.3552 19.5884 29.0375 18.8704 29.0375 17.759C29.0387 17.736 29.0387 17.713 29.0375 17.69C29.0375 17.6696 29.0375 17.6542 29.0375 17.6338C29.0375 16.2029 27.5916 15.278 25.3515 15.278C22.587 15.278 20.5149 16.7114 19.2039 19.1745C18.7253 20.0739 18.0482 22.8589 17.7783 24.0138C17.5569 24.8979 17.2692 25.3195 16.251 25.3195C16.1008 25.3195 15.6859 25.7768 15.6859 26.2112C15.6859 26.2265 15.6859 26.2342 15.6859 26.2495C15.6832 26.2784 15.6832 26.3075 15.6859 26.3364C15.6859 26.5459 15.887 26.5766 16.0092 26.5766C16.7448 26.5766 17.1241 26.9189 17.1419 27.5986C17.0681 28.6462 15.8182 36.0303 14.9858 39.0709C14.7005 40.2658 14.187 41.3938 13.4738 42.3925L13.349 42.5535C13.1849 42.7333 13.057 42.9432 12.9723 43.1718C12.9694 43.2058 12.9694 43.24 12.9723 43.274C12.9723 43.274 12.9723 43.2919 12.9723 43.297C12.9723 43.4605 12.9723 43.5372 13.4152 43.5372C14.6626 43.5372 18.9035 41.6336 19.6239 38.8154C20.3341 36.2347 21.3014 31.3469 21.6833 29.3616C22.0651 27.3763 23.2106 26.6149 25.9344 26.6149C26.2246 26.6149 26.5402 26.1933 26.5402 25.5596" fill="#FF004D"/>
<path d="M30.0378 16.7889C30.1677 17.8288 30.3382 18.0664 30.3459 19.395C30.3459 22.9951 29.3429 25.7827 28.4647 28.624C27.8003 30.76 27.2275 32.6048 27.2275 34.1608V34.2222C27.2275 34.2426 27.2275 34.263 27.2275 34.286C27.2275 36.4732 28.592 37.7814 30.8728 37.7814C33.3675 37.7814 34.9814 36.1768 35.7094 35.2263C36.5316 36.9305 38.3339 37.9551 40.7624 37.9551C45.9401 37.9551 48.2973 33.7392 48.2973 29.8223C48.2973 29.8223 48.2973 29.7993 48.2973 29.7865C48.2973 29.7738 48.2973 29.7278 48.2973 29.6971C48.2973 27.0475 46.3932 25.2666 43.5574 25.2666C38.1379 25.2666 35.213 29.1631 35.213 32.8296C35.2119 32.8509 35.2119 32.8722 35.213 32.8935C35.2116 32.9131 35.2116 32.9327 35.213 32.9523C35.2136 33.401 35.2683 33.848 35.3759 34.2835C34.9228 34.7255 34.5308 35.027 33.813 35.027C32.866 35.027 32.2041 34.2196 32.194 33.0647C32.2169 31.0028 33.0747 27.8523 33.9046 24.8016C34.6886 21.9143 35.3123 20.1232 35.3123 18.5161C35.3123 18.4956 35.3123 18.4778 35.3123 18.4599C35.3123 18.442 35.3123 18.4139 35.3123 18.3909C35.3123 16.5844 34.4697 15.5573 32.4892 15.5573C30.2288 15.5573 29.9869 16.3008 30.0226 16.656C30.0175 16.7035 30.0175 16.7515 30.0226 16.7991L30.0378 16.7889ZM42.1014 27.4078C42.6105 27.0092 43.1196 26.7715 43.4378 26.7715C43.6045 26.7574 43.7701 26.8103 43.898 26.9185C44.0259 27.0268 44.1058 27.1816 44.12 27.349C44.0898 27.5095 44.0168 27.6587 43.9087 27.7808C43.6579 28.0891 43.5235 28.4764 43.5294 28.8744C43.5294 28.9025 43.5294 28.9331 43.5294 28.9612C43.5294 28.9894 43.5294 28.9842 43.5294 28.9996C43.5294 29.4595 43.6338 29.853 44.9524 30.364C45.5786 30.6348 45.9426 31.2864 45.9706 32.1525C45.9376 33.7827 44.7437 35.5022 42.9745 35.5022C41.2053 35.5022 40.0369 34.1838 40.0165 32.2164C40.0394 29.4825 41.3402 28.0261 42.1243 27.395" fill="#FF004D"/>
<path d="M56.3185 28.5032V28.958C56.3185 29.4486 56.6851 30.1768 57.6957 30.1768C59.1212 30.1768 60.002 28.677 60.002 27.2896C60.002 27.2896 60.002 27.264 60.002 27.2487C60.0034 27.2206 60.0034 27.1925 60.002 27.1644C60.002 26.1577 59.4394 25.5802 58.4619 25.5802C56.9014 25.5802 55.9163 26.7786 55.481 27.4965C55.3843 27.655 55.0839 28.0944 54.8522 28.0331C54.7021 27.9948 54.6562 27.8389 54.646 27.6856C54.6499 27.6264 54.6575 27.5675 54.669 27.5093C54.7481 27.1022 54.7966 26.6897 54.8141 26.2752C54.8141 26.2497 54.8141 26.2241 54.8141 26.1935C54.8153 26.179 54.8153 26.1645 54.8141 26.15C54.8141 25.9507 54.8141 25.4193 53.7627 25.4193C51.1917 25.4193 49.5523 26.1168 49.5523 26.5972C49.5523 26.6304 49.5523 26.661 49.5523 26.6917C49.5514 26.701 49.5514 26.7105 49.5523 26.7198C49.5525 26.8697 49.5874 27.0175 49.6542 27.1516C49.7697 27.4087 49.8304 27.6872 49.8324 27.9692C49.8145 29.2212 49.3054 31.4058 48.8549 33.3349C48.4832 34.9293 48.1344 36.4368 48.1344 37.0806C48.1332 37.1028 48.1332 37.1249 48.1344 37.1471C48.1332 37.1658 48.1332 37.1846 48.1344 37.2033C48.1344 37.6913 48.2872 37.7731 48.6588 37.7731C48.8956 37.7731 49.3105 37.7373 49.7916 37.6964C50.4789 37.6402 51.3368 37.5687 52.0623 37.5687C52.5459 37.5687 52.6274 37.4946 52.6274 37.0423C52.6274 35.356 53.5718 31.9322 54.3253 30.5422C55.2188 28.8865 56.316 28.4981 56.316 28.4981" fill="#FF004D"/>
<path d="M111 32.6603C110.982 32.1384 110.762 31.6441 110.388 31.2815C110.013 30.9188 109.513 30.7162 108.993 30.7162C108.473 30.7162 107.973 30.9188 107.598 31.2815C107.224 31.6441 107.004 32.1384 106.986 32.6603C106.986 32.6808 106.986 32.7012 106.986 32.7217C106.986 32.7421 106.986 32.7626 106.986 32.7855C107.004 33.3075 107.224 33.8018 107.598 34.1644C107.973 34.5271 108.473 34.7297 108.993 34.7297C109.513 34.7297 110.013 34.5271 110.388 34.1644C110.762 33.8018 110.982 33.3075 111 32.7855C111.001 32.7651 111.001 32.7446 111 32.7242C111.001 32.703 111.001 32.6816 111 32.6603ZM108.999 34.3237C108.685 34.3222 108.378 34.2273 108.118 34.051C107.857 33.8748 107.654 33.625 107.535 33.3332C107.416 33.0414 107.385 32.7207 107.447 32.4115C107.509 32.1023 107.661 31.8185 107.884 31.5958C108.106 31.3731 108.39 31.2216 108.698 31.1603C109.006 31.099 109.325 31.1307 109.616 31.2514C109.906 31.3721 110.154 31.5764 110.329 31.8385C110.504 32.1006 110.597 32.4088 110.598 32.7242C110.597 33.1489 110.428 33.5557 110.128 33.8555C109.828 34.1554 109.422 34.3237 108.999 34.3237Z" fill="#FF004D"/>
<path d="M109.389 32.9133C109.537 32.8959 109.672 32.8219 109.767 32.7067C109.862 32.5915 109.909 32.444 109.898 32.295C109.899 32.2745 109.899 32.2541 109.898 32.2336C109.899 32.2124 109.899 32.191 109.898 32.1698C109.898 31.7175 109.643 31.5182 109.091 31.5182H108.22V33.943H108.567V32.9491H108.964L109.567 33.943H109.969V33.8178L109.389 32.9133ZM108.579 32.5249V31.9398H109.05C109.274 31.9398 109.508 31.9883 109.542 32.2209C109.508 32.5045 109.267 32.5275 108.994 32.5275L108.579 32.5249Z" fill="#FF004D"/>
</svg>
