<svg width="54" height="53" viewBox="0 0 54 53" fill="none" xmlns="http://www.w3.org/2000/svg">
<g clip-path="url(#clip0_212_17)">
<path d="M26.8596 0C12.0274 0 0 12.0252 0 26.8596C0 38.7268 7.69608 48.7949 18.3682 52.3465C19.7106 52.5951 20.2034 51.7638 20.2034 51.0544C20.2034 50.4139 20.1785 48.2981 20.1669 46.0537C12.6946 47.6785 11.1178 42.8846 11.1178 42.8846C9.89598 39.7801 8.13553 38.9545 8.13553 38.9545C5.69856 37.2875 8.31922 37.3217 8.31922 37.3217C11.0164 37.5112 12.4366 40.0896 12.4366 40.0896C14.8322 44.1959 18.72 43.0087 20.2528 42.3224C20.4938 40.5864 21.1899 39.4016 21.958 38.7308C15.9922 38.0516 9.72073 35.7485 9.72073 25.4567C9.72073 22.5243 10.77 20.1282 12.4882 18.2472C12.2093 17.5707 11.2899 14.8389 12.7484 11.1391C12.7484 11.1391 15.0039 10.4173 20.1367 13.8924C22.2792 13.2972 24.5769 12.9988 26.8596 12.9886C29.1422 12.9988 31.4417 13.2972 33.5882 13.8924C38.7148 10.4173 40.9672 11.1391 40.9672 11.1391C42.4292 14.8389 41.5094 17.5707 41.2305 18.2472C42.9527 20.1282 43.9948 22.5243 43.9948 25.4567C43.9948 35.773 37.7114 38.0445 31.7304 38.7095C32.6938 39.543 33.5522 41.1776 33.5522 43.6835C33.5522 47.2773 33.5211 50.1697 33.5211 51.0544C33.5211 51.7692 34.0046 52.6067 35.366 52.343C46.0324 48.7874 53.7187 38.7228 53.7187 26.8596C53.7187 12.0252 41.6931 0 26.8596 0ZM10.0598 38.262C10.0006 38.3954 9.79068 38.4355 9.59943 38.3438C9.40461 38.2562 9.2952 38.0743 9.35836 37.9404C9.41618 37.803 9.62656 37.7647 9.82093 37.8568C10.0162 37.9444 10.1274 38.1281 10.0598 38.262ZM11.381 39.4409C11.2529 39.5596 11.0025 39.5045 10.8326 39.3168C10.6569 39.1295 10.624 38.8791 10.7538 38.7586C10.8859 38.6398 11.1288 38.6954 11.3049 38.8827C11.4806 39.0722 11.5148 39.3208 11.381 39.4409ZM12.2874 40.9492C12.1228 41.0635 11.8537 40.9563 11.6873 40.7175C11.5228 40.4786 11.5228 40.1922 11.6909 40.0775C11.8577 39.9627 12.1228 40.0659 12.2914 40.303C12.4555 40.5458 12.4555 40.8322 12.2874 40.9492ZM13.8203 42.6961C13.673 42.8584 13.3595 42.8149 13.1299 42.5934C12.8951 42.3767 12.8297 42.0694 12.9774 41.9071C13.1264 41.7443 13.4417 41.7901 13.673 42.0098C13.9061 42.226 13.9773 42.5355 13.8203 42.6961ZM15.8014 43.2858C15.7364 43.4962 15.4344 43.5918 15.1302 43.5024C14.8264 43.4104 14.6276 43.164 14.689 42.9513C14.7521 42.7396 15.0555 42.64 15.3619 42.7356C15.6653 42.8273 15.8645 43.0719 15.8014 43.2858ZM18.056 43.536C18.0635 43.7575 17.8056 43.9412 17.4862 43.9452C17.1651 43.9523 16.9053 43.773 16.9018 43.5551C16.9018 43.3314 17.1539 43.1494 17.4751 43.1441C17.7944 43.1379 18.056 43.3158 18.056 43.536ZM20.2709 43.4511C20.3091 43.6672 20.0872 43.8892 19.77 43.9483C19.4582 44.0053 19.1696 43.8718 19.13 43.6574C19.0913 43.4359 19.3172 43.214 19.6286 43.1566C19.9462 43.1015 20.2304 43.2313 20.2709 43.4511Z" fill="white"/>
</g>
<defs>
<clipPath id="clip0_212_17">
<rect width="53.7187" height="52.4596" fill="white"/>
</clipPath>
</defs>
</svg>
