<svg width="107" height="45" viewBox="0 0 107 45" fill="none" xmlns="http://www.w3.org/2000/svg">
<path d="M29.496 10.3307H16.3422C16.0643 10.3307 15.8434 10.11 15.8434 9.83203V1.28897C15.8434 1.01101 15.6228 0.790283 15.3448 0.790283H10.5623C10.2844 0.790283 10.0636 1.01101 10.0636 1.28897V27.4087C10.0636 27.6784 10.2844 27.9073 10.5623 27.9073H15.3448C15.6228 27.9073 15.8434 27.6866 15.8434 27.4087V15.5138C15.8434 15.244 16.0643 15.0151 16.3422 15.0151H28.09C29.4633 15.0151 30.5834 16.1351 30.5834 17.5086V19.6504V27.3351V29.4689C30.5834 30.8422 29.4633 31.9623 28.09 31.9623H27.9509H8.27327C6.89986 31.9623 5.77985 30.8422 5.77985 29.4689V10.7722C5.77985 10.5024 5.55912 10.2735 5.28116 10.2735H0.498685C0.22073 10.2817 0 10.5024 0 10.7722V29.7877C0 33.5809 3.07386 36.6548 6.86715 36.6548H27.9509H29.496C33.2892 36.6548 36.3633 33.5809 36.3633 29.7877V27.3351V19.6504V17.1978C36.3633 13.4046 33.2892 10.3307 29.496 10.3307Z" fill="white"/>
<path d="M70.5763 0.789795H65.7938C65.5159 0.789795 65.2951 1.01053 65.2951 1.28848V9.84789C65.2951 10.1177 65.0744 10.3466 64.7964 10.3466H63.1123C62.8752 10.3466 62.671 10.5183 62.6218 10.7553L61.9107 14.4587C61.8534 14.7612 62.0905 15.0391 62.4012 15.0391H64.7964C65.0662 15.0391 65.2951 15.219 65.2951 15.4888V29.7953C65.2951 33.5886 68.369 36.6624 72.1623 36.6624H78.498C78.7678 36.6624 78.9967 36.4417 78.9967 36.1638V32.4686C78.9967 32.1988 78.776 31.9699 78.498 31.9699H73.5602C72.1868 31.9699 71.0668 30.85 71.0668 29.4765V15.5378C71.0668 15.2599 71.2876 15.0391 71.5655 15.0391H78.5307C78.8088 15.0391 79.0294 14.8184 79.0294 14.5404V10.8371C79.0294 10.5673 78.8088 10.3384 78.5307 10.3384H71.5655C71.2876 10.3384 71.0668 10.1177 71.0668 9.83972V1.28848C71.0668 1.01053 70.8461 0.789795 70.5763 0.789795Z" fill="white"/>
<path d="M90.442 20.6064V24.3097C90.442 24.5877 90.6628 24.8084 90.9407 24.8084H106.384C106.662 24.8084 106.882 24.5877 106.882 24.3097V20.4347V17.1401C106.882 13.3796 103.841 10.3384 100.08 10.3384H87.1964C83.4032 10.3384 80.3292 13.4122 80.3292 17.2055V29.7954C80.3292 33.5804 83.4032 36.6542 87.1882 36.6542H106.351C106.645 36.6542 106.89 36.4171 106.89 36.1147V32.4685C106.89 32.1988 106.67 31.9699 106.392 31.9699H88.6025C87.2292 31.9699 86.1091 30.8499 86.1091 29.4765V17.5325C86.1091 16.1591 87.2292 15.0391 88.6025 15.0391H98.5681C99.9415 15.0391 101.061 16.1591 101.061 17.5325V19.609C101.061 19.8788 100.841 20.1077 100.563 20.1077H90.9407C90.6628 20.1077 90.442 20.3285 90.442 20.6064Z" fill="white"/>
<path d="M59.9485 10.2812H55.1088C54.8717 10.2812 54.6673 10.4447 54.6264 10.6818L50.359 31.7085C50.31 31.9373 49.8685 31.9618 49.6314 31.9618H49.2308C48.1926 31.9618 47.3423 30.9809 47.1379 29.9589L43.2466 10.6655C43.1976 10.4366 42.9932 10.2649 42.7561 10.2649H37.9164C37.6056 10.2649 37.3687 10.551 37.434 10.8617L41.6606 31.7902C42.4045 35.469 44.2603 36.6381 48.0127 36.6381H48.7321C49.0427 36.6381 49.2798 36.9242 49.2226 37.2348L49.0674 38.0768C48.863 38.8944 47.9718 39.4585 46.9336 39.4585H37.9899H37.9327C37.6956 39.4585 37.4831 39.6302 37.4422 39.8671L37.434 43.5788C37.3768 43.8812 37.6139 44.1592 37.9245 44.1592H38.4559H40.2299H48.3398C52.092 44.1592 53.9478 42.892 54.6918 39.2132L60.439 10.8698C60.4962 10.5674 60.2591 10.2812 59.9485 10.2812Z" fill="white"/>
<path d="M5.28116 0.789795H0.498685C0.22073 0.789795 0 1.01053 0 1.28848V4.97548C0 5.25345 0.22073 5.47418 0.498685 5.47418H5.28116C5.55094 5.47418 5.77985 5.25345 5.77985 4.97548V1.28848C5.77167 1.01053 5.55094 0.789795 5.28116 0.789795Z" fill="white"/>
</svg>
