<svg width="80" height="22" viewBox="0 0 80 22" fill="none" xmlns="http://www.w3.org/2000/svg">
<path d="M33.3 1.1001C30.7 0.900098 28 1.0001 25.3 1.0001H25.1V21.0001H32.7C34.2 21.0001 35.7 20.7001 37.1 20.1001L38.1 19.6001C39.2174 18.9841 40.2024 18.1538 40.9984 17.1565C41.7945 16.1593 42.3859 15.0148 42.7389 13.7886C43.0919 12.5624 43.1995 11.2786 43.0556 10.0108C42.9116 8.74291 42.5189 7.51593 41.9 6.4001C41.0829 4.81904 39.8506 3.49034 38.3355 2.5566C36.8204 1.62287 35.0796 1.11936 33.3 1.1001ZM38.7 11.4001C38.7 13.3001 37.7 15.1001 36.1 16.1001C35.1 16.7001 33.9 17.0001 32.7 17.0001H29.3V5.1001L29.4 5.0001C31 4.9001 32.7 5.0001 34.3 5.2001C37.1 5.9001 39 8.5001 38.7 11.4001ZM78.8 20.6001L73.7 1.4001C73.7 1.1001 73.5 1.0001 73.2 1.0001H64.7L59.4 20.9001H63.5C63.7 20.9001 63.9 20.7001 64 20.5001L64.9 16.8001C64.9 16.6001 65.1 16.5001 65.3 16.5001H73.1C73.3 16.5001 73.5 16.7001 73.5 16.9001L74.4 20.6001C74.4 20.8001 74.7 21.0001 74.9 20.9001H79L78.8 20.6001ZM66 12.5001L66.3 11.2001L67.8 5.4001C67.9 5.1001 68 5.0001 68.4 5.0001H70.1L70.4 5.2001L72.3 12.5001H66ZM1.09998 1.1001H5.29998V21.0001H1.09998V1.1001Z" fill="white"/>
</svg>
