<svg width="80" height="59" viewBox="0 0 80 59" fill="none" xmlns="http://www.w3.org/2000/svg">
<path d="M34.3068 23.7887L38.8811 22.5121L38.9599 22.0333L34.4646 22.1929L34.3068 23.7887Z" fill="white"/>
<path d="M41.2471 21.6344C40.4584 21.6344 39.7486 21.8738 39.1965 22.4323L41.9569 21.7142C41.7991 21.6344 41.4837 21.6344 41.2471 21.6344Z" fill="white"/>
<path d="M52.9193 17.8844C53.708 17.9641 54.4966 17.9641 55.2853 18.0439L71.7683 13.5758C71.4529 13.0971 71.0585 12.6184 70.5853 12.1396C70.9008 11.4215 71.6106 11.0226 71.4529 10.1449C71.374 9.82579 71.6106 9.18748 71.7683 9.18748C72.7936 8.94812 72.2415 8.3896 72.1627 7.83109C72.0838 7.43215 71.7683 6.87364 71.8472 6.71406C72.3204 6.07576 71.9261 5.59703 71.7683 5.03851C71.6106 4.63958 71.2951 4.16085 71.2951 3.76191C71.1374 2.40551 70.5065 1.44806 69.4023 0.809758C68.456 0.251243 67.5096 -0.466848 66.2477 0.410818C65.3802 0.969333 64.5126 1.44806 63.9606 2.32573C63.8817 2.40551 63.8817 2.72467 63.724 2.88424C62.6987 3.8417 62.6987 5.03851 63.2508 6.23533C63.6451 7.113 64.0394 7.99067 64.4338 8.86833C64.907 9.90557 64.6704 10.863 63.6451 11.3418C62.6198 11.8205 61.8312 12.6981 60.4905 12.4588C60.0173 12.379 59.4652 12.7779 58.9131 12.9375C58.4399 13.0971 57.8879 13.3365 57.3358 13.2567C54.4966 13.0971 51.894 13.9748 49.3703 15.0918C49.1337 15.1716 48.8182 15.5705 48.8182 15.8897C48.8182 17.2461 48.7394 18.5227 48.7394 19.8791L52.6038 18.8418C52.6827 18.5227 52.7616 18.2035 52.9193 17.8844Z" fill="white"/>
<path d="M18.2181 55.7836L18.6125 52.0336L14.5114 48.3633L14.2748 50.8368C14.1171 52.2729 13.8016 52.2729 12.9341 52.3527C12.1454 52.3527 12.0666 52.0336 12.1454 50.9963L12.5398 46.6878L8.59645 43.0175L7.72892 51.9538C7.49232 54.6666 7.49232 56.3421 10.8047 56.1825C12.0666 56.1028 13.0918 55.5442 13.8805 54.7464L13.8016 55.9432L18.2181 55.7836Z" fill="white"/>
<path d="M1.41959 42.0601L0 56.5017L4.49538 56.3421L5.28404 47.9644C5.52064 45.9697 6.15157 45.8101 7.7289 45.7303L8.04436 42.5388L7.33457 41.9005C6.7825 42.1399 6.23044 42.5388 5.75724 43.0176L5.83611 41.8207L1.41959 42.0601Z" fill="white"/>
<path d="M15.6156 28.6557L15.6944 28.177C15.8522 26.8206 16.0099 26.4217 16.9563 26.4217C17.9027 26.4217 17.9815 26.7408 17.8238 28.0972L17.7449 28.4164L22.0826 27.2195C22.2403 24.1078 20.8996 22.5919 17.0352 22.7514C13.565 22.911 11.83 24.028 11.3568 28.177L11.1202 30.1717L16.6408 28.6557H15.6156Z" fill="white"/>
<path d="M2.05052 17.4056L0.552063 32.9643L9.54282 30.5706L9.06962 27.3791L11.8299 23.1504L7.57116 23.3099L5.52064 26.5015L6.38817 17.2461L2.05052 17.4056Z" fill="white"/>
<path d="M19.48 52.8315L19.1645 55.7038L22.4769 55.624L19.48 52.8315Z" fill="white"/>
<path d="M28.2341 22.1929C25.0006 22.3525 23.1867 23.3897 22.6346 26.9004L32.8873 24.1078C32.3352 22.7514 30.8367 22.1131 28.2341 22.1929Z" fill="white"/>
<path d="M0.0788574 38.0707L2.91804 37.9111L0.315456 35.5175L0.0788574 38.0707Z" fill="white"/>
<path d="M8.1232 41.7409C7.8866 41.7409 7.57117 41.8207 7.33457 41.9005L8.04436 42.5388L8.1232 41.7409Z" fill="white"/>
<path d="M43.3764 50.5974L42.9821 54.7463H43.3764C43.2976 53.39 43.2976 51.9538 43.3764 50.5974Z" fill="white"/>
<path d="M49.4491 28.0972C49.528 29.1345 49.7646 30.0121 50.3167 30.8898C50.3955 31.0494 50.5532 31.1292 50.6321 31.2887C51.4996 30.1717 52.446 29.1345 53.4713 28.177C53.2347 28.0972 52.9981 28.0972 52.8404 28.0174C52.2883 27.8579 51.894 27.4589 51.894 26.8206C51.6574 24.1078 51.6574 21.4748 52.6038 18.8418L48.6605 19.8791C48.6605 20.8365 48.6605 21.7142 48.7393 22.6716C48.8971 24.427 49.2914 26.2621 49.4491 28.0972Z" fill="white"/>
<path d="M13.0918 41.5814L8.6753 41.7409L8.59645 43.0175L12.6186 46.6878L13.0918 41.5814Z" fill="white"/>
<path d="M44.4806 38.8686L46.1368 38.7888C46.7677 37.3526 47.4775 35.9164 48.345 34.56L44.8749 34.7196L44.4806 38.8686Z" fill="white"/>
<path d="M19.6377 41.2622L15.1423 41.5016L14.5114 48.3633L18.5336 52.0336L19.6377 41.2622Z" fill="white"/>
<path d="M0.315456 35.5175L2.91804 37.9111H4.41651L4.81084 33.443L5.44177 32.4057L6.15157 37.8313L10.4892 37.592L9.54282 30.5706L0.552063 32.9643L0.315456 35.5175Z" fill="white"/>
<path d="M22.5557 27.6185L22.1614 31.8472C21.8459 35.1983 23.1078 37.193 27.6032 37.0335C31.231 36.8739 32.0986 35.3579 32.6506 32.4855L28.5496 32.6451C28.3919 33.3632 28.1553 33.6026 27.4455 33.6026C26.3413 33.6824 26.3413 32.9643 26.4991 31.7675L26.5779 31.2887L32.9661 31.0494L33.2816 27.2993C33.4393 26.0227 33.3604 24.9057 32.9661 24.1078L22.7135 26.9004C22.6346 27.1398 22.5557 27.3791 22.5557 27.6185ZM26.8934 27.6983C27.0511 26.3419 27.2089 25.9429 28.1553 25.9429C29.1016 25.9429 29.1805 26.2621 29.0228 27.6185L28.9439 28.177H26.8145L26.8934 27.6983Z" fill="white"/>
<path d="M79.1029 18.6822C79.4183 17.9642 79.7338 17.1663 79.9704 16.4482C80.0493 16.129 79.9704 15.6503 79.7338 15.4109C78.9451 14.6929 77.9987 14.2141 76.9735 13.9748C76.8158 13.9748 76.5003 14.1343 76.5003 14.2141C76.3426 14.6929 76.1848 15.2514 76.106 15.7301C76.106 15.8897 76.106 16.0492 76.0271 16.2088C75.8694 16.129 75.6328 16.0492 75.5539 15.8897C75.3173 15.4109 75.1596 14.9322 74.8441 14.5333C74.6864 14.3737 74.3709 14.3737 74.0554 14.2939C74.0554 14.5333 73.9766 14.8524 74.0554 15.012C74.2132 15.4907 74.5286 15.9695 74.7652 16.528C75.0018 17.2461 75.0807 18.0439 75.475 18.6025C76.7369 18.6025 77.9199 18.6025 79.1029 18.6822Z" fill="white"/>
<path d="M37.5403 54.9857L41.9569 54.8262L42.9821 44.5335C43.2976 41.5814 43.1398 40.1452 39.9063 40.3048C38.7233 40.3846 37.8558 40.7835 37.0671 41.5016L37.146 40.6239H36.9094L32.4929 40.7835L31.0733 55.3049L35.4898 55.1453L36.3573 46.4484C36.5939 44.3739 36.7517 44.2942 37.6981 44.2144C38.4867 44.2144 38.5656 44.5335 38.4867 45.5708L37.5403 54.9857Z" fill="white"/>
<path d="M16.3253 37.5122C19.9532 37.3526 20.8207 35.8367 21.3728 32.9643L17.3506 33.1239C17.1929 33.842 16.9563 34.0813 16.2465 34.0813C15.1423 34.1611 15.1423 33.443 15.3001 32.2462L15.3789 31.7675L21.7671 31.5281L22.0826 27.7781C22.0826 27.5387 22.0826 27.2993 22.1614 27.1398L17.8238 28.3366V28.576L16.7985 28.6557L11.2779 30.1717L11.0413 32.4058C10.5681 35.6771 11.83 37.6718 16.3253 37.5122Z" fill="white"/>
<path d="M23.581 55.5442L24.4486 46.8474C24.6852 44.7729 24.8429 44.6931 25.7893 44.6133C26.5779 44.6133 26.6568 44.9324 26.5779 45.9697L25.6316 55.3847L30.0481 55.2251L31.0733 44.9324C31.3888 41.9803 31.2311 40.5441 27.9975 40.7037C26.7357 40.7835 25.7104 41.342 24.9218 42.1399L25.0006 41.0228L20.5841 41.1824L19.48 52.8315L22.4769 55.5442H23.581Z" fill="white"/>
<path d="M58.4399 18.2035C58.4399 18.4429 58.5977 18.762 58.5977 19.0812C58.5977 20.1982 58.5977 21.395 58.6765 22.512C58.6765 22.9908 58.7554 23.4695 58.7554 23.8684C63.3296 20.9163 68.5348 19.0812 74.0555 18.6024C73.8189 18.2035 73.5823 17.8046 73.3457 17.4056C73.1879 17.1663 73.0302 16.8471 72.9513 16.528C72.7147 15.4109 72.3993 14.3737 71.7683 13.4162L55.2853 17.8844C56.3105 18.1237 57.3358 18.2035 58.4399 18.2035Z" fill="white"/>
<path d="M45.5847 40.225L44.3228 40.3048L43.613 47.8048C43.7708 46.7676 43.9285 45.7303 44.1651 44.6931C44.5594 43.0973 45.0326 41.6612 45.5847 40.225Z" fill="white"/>
<path d="M32.8083 39.3473L37.2249 39.1877L37.5403 35.6771C38.0924 36.3952 38.8811 36.4749 40.3006 36.3952C43.1398 36.3154 44.1651 34.4005 44.4806 31.1292L44.8749 26.8206C45.1115 24.3472 44.8749 21.8738 41.878 21.6344L39.1177 22.3525C38.9599 22.4323 38.8811 22.5919 38.7233 22.7514V22.4323L34.2279 23.6291L32.8083 39.3473ZM38.0135 31.2887L38.4079 27.1398C38.4867 26.2621 38.7233 25.7036 39.512 25.7036C40.5372 25.6238 40.5372 26.2621 40.4584 27.2196L40.1429 31.0494C40.0641 32.2462 39.7486 32.8845 38.9599 32.8845C37.9347 32.8047 37.9347 32.2462 38.0135 31.2887Z" fill="white"/>
<path d="M54.8909 54.2677L59.3074 54.1081L60.3327 43.8154C60.6482 40.8633 60.4904 39.4271 57.2569 39.5867C55.9951 39.6665 54.9698 40.225 54.1811 41.0229L54.26 39.9058L49.8435 40.0654L48.4239 54.5868L52.8404 54.4272L53.7079 45.7304C53.9445 43.6559 54.1023 43.5761 55.0487 43.4963C55.8373 43.4963 55.9162 43.8154 55.8373 44.8527L54.8909 54.2677Z" fill="white"/>
<path d="M50.711 31.2089C50.8688 31.3685 50.9476 31.5281 51.0265 31.7675C51.1842 32.7249 51.894 32.4058 52.3672 32.4058C52.6827 32.4058 52.9981 32.0866 53.3136 31.927C54.4177 31.3685 54.7332 30.5706 54.26 29.3738C55.0487 29.5334 55.9162 29.7728 56.4683 28.8951C55.443 28.6557 54.4177 28.4164 53.4713 28.177C52.525 29.1345 51.5786 30.1717 50.711 31.2089Z" fill="white"/>
<path d="M59.0708 28.4962C59.1497 30.1717 58.5188 31.6079 57.809 33.0441C57.0992 34.4803 56.4683 35.8366 56.626 37.5122C56.626 37.592 56.626 37.7516 56.626 37.8313L70.5065 37.2728C69.7178 36.7941 68.8503 36.4749 67.9827 36.076C67.6673 35.9962 67.4307 35.7569 67.2729 35.6771C68.6925 31.3685 70.0333 27.06 71.374 22.8312C71.6894 23.3897 72.0049 24.028 72.3992 24.6663C73.1879 26.1823 75.0018 26.4217 75.9482 25.0653C76.658 24.1078 77.2101 22.9908 77.7621 21.8738C78.1565 21.0759 78.4719 20.278 78.7874 19.4801C78.9451 19.161 79.024 18.8418 79.1817 18.6025C77.9988 18.5227 76.8158 18.5227 75.6328 18.5227C76.3426 19.4003 75.7116 19.7993 75.2384 20.3578C74.8441 19.7195 74.4499 19.1609 74.0555 18.6024C68.5348 19.0812 63.3296 20.9163 58.7554 23.8684C58.8342 25.4641 58.992 26.9802 59.0708 28.4962Z" fill="white"/>
<path d="M48.8971 38.709L49.2914 34.56L48.345 34.6398C47.5564 35.9962 46.7677 37.4324 46.1368 38.8686L48.8971 38.709Z" fill="white"/>
<path d="M65.7745 58.9751C68.9291 58.8155 70.6642 57.14 70.9796 53.8687L72.4781 39.0281L68.0616 39.1877L67.9827 39.826C67.4306 39.1877 66.642 39.0281 65.2224 39.1079C62.3832 39.1877 61.3579 41.1026 61.0425 44.3739L60.6482 48.6825C60.4116 51.3155 60.6482 53.7889 64.3549 53.6293C65.3013 53.5495 66.0899 53.3102 66.7209 52.5921L66.5631 54.1878C66.4843 54.9059 66.3265 55.2251 65.459 55.3049C64.5126 55.3049 64.3549 55.0655 64.276 54.3474L59.9384 55.624C60.4116 57.6985 60.8848 59.2145 65.7745 58.9751ZM66.0111 50.1187C64.9858 50.1984 64.9858 49.5601 65.0647 48.6027L65.3801 44.7729C65.459 43.576 65.7745 42.9377 66.5631 42.9377C67.5095 42.858 67.5884 43.4963 67.5095 44.4537L67.1152 48.842C67.0363 49.6399 66.7209 50.1187 66.0111 50.1187Z" fill="white"/>
<path d="M43.3764 54.7463L47.3986 54.5868L48.8182 40.0654L45.5847 40.225C45.0326 41.6612 44.5594 43.1771 44.1651 44.6931C43.9285 45.7303 43.7708 46.7676 43.613 47.8048L43.3764 50.5974C43.2976 51.9538 43.2976 53.39 43.3764 54.7463Z" fill="white"/>
</svg>
