<svg width="144" height="40" viewBox="0 0 144 40" fill="none" xmlns="http://www.w3.org/2000/svg">
<g clip-path="url(#clip0_211_101)">
<path d="M0 0H5.5696V37.4005H25.8948V39.9955H0V0Z" fill="white"/>
<path d="M31.3575 0H36.927V39.9955H31.3575V0Z" fill="white"/>
<path d="M71.66 0V2.59505H50.3938V16.8922H64.6323V19.4872H50.3938V37.405H71.66V40H44.8243V0.00441843H71.66V0Z" fill="white"/>
<path d="M77.796 0H93.4345C95.5035 0 97.3944 0.238723 99.1067 0.707335C100.819 1.18037 102.291 1.84792 103.517 2.71442C104.743 3.5809 105.702 4.61538 106.393 5.82228C107.084 7.02918 107.428 8.35543 107.428 9.80548C107.428 10.9328 107.316 11.9363 107.093 12.8205C106.87 13.7047 106.496 14.5137 105.969 15.2476C105.443 15.9814 104.721 16.671 103.811 17.3122C102.897 17.9575 101.764 18.5987 100.404 19.244H100.07V19.3633H100.587C101.947 19.5668 103.174 19.9337 104.266 20.4642C105.363 20.9992 106.299 21.6843 107.08 22.5287C107.86 23.3732 108.458 24.3545 108.877 25.4687C109.292 26.5827 109.501 27.8162 109.501 29.1645C109.501 30.672 109.185 32.0867 108.556 33.404C107.927 34.7215 107.026 35.8665 105.849 36.8435C104.672 37.8205 103.258 38.5897 101.604 39.1512C99.9494 39.7127 98.0899 39.9955 96.0209 39.9955H77.796V0ZM83.3655 18.0107H92.614C94.0722 18.0107 95.3654 17.8205 96.4935 17.4358C97.6217 17.0513 98.5715 16.5252 99.3519 15.8532C100.132 15.1812 100.725 14.3766 101.131 13.4394C101.537 12.5022 101.738 11.4942 101.738 10.4067C101.738 9.23962 101.506 8.1786 101.038 7.2237C100.569 6.26878 99.8424 5.45093 98.848 4.7657C97.8535 4.08047 96.5917 3.5588 95.0622 3.19628C93.5325 2.83377 91.6999 2.65252 89.5684 2.65252H83.3655V18.0107ZM83.3655 37.0733H91.3074C93.3765 37.0733 95.1692 36.8877 96.6942 36.5163C98.2148 36.145 99.4723 35.6233 100.467 34.947C101.461 34.275 102.201 33.466 102.687 32.5198C103.174 31.5738 103.419 30.5393 103.419 29.412C103.419 28.1432 103.205 26.9673 102.781 25.8842C102.357 24.801 101.657 23.8593 100.681 23.0637C99.7042 22.2678 98.4333 21.6402 96.8637 21.1803C95.2895 20.7162 93.3675 20.4863 91.0979 20.4863H83.3655V37.0733Z" fill="white"/>
<path d="M143.333 0V2.59505H122.067V16.8922H136.306V19.4872H122.067V37.405H143.333V40H116.497V0.00441843H143.333V0Z" fill="white"/>
</g>
<defs>
<clipPath id="clip0_211_101">
<rect width="143.333" height="40" fill="white"/>
</clipPath>
</defs>
</svg>
