<svg width="54" height="53" viewBox="0 0 54 53" fill="none" xmlns="http://www.w3.org/2000/svg">
<g clip-path="url(#clip0_212_15)">
<path fill-rule="evenodd" clip-rule="evenodd" d="M27.1296 0C12.6433 0 0.89978 11.7435 0.89978 26.2298C0.89978 40.7161 12.6433 52.4596 27.1296 52.4596C41.6159 52.4596 53.3594 40.7161 53.3594 26.2298C53.3594 11.7435 41.6159 0 27.1296 0ZM13.4918 21.7246H19.4361V39.5847H13.4918V21.7246ZM19.8277 16.1999C19.7891 14.4487 18.5368 13.1149 16.5032 13.1149C14.4698 13.1149 13.1404 14.4487 13.1404 16.1999C13.1404 17.9147 14.4305 19.2869 16.4261 19.2869H16.4641C18.5368 19.2869 19.8277 17.9147 19.8277 16.1999ZM34.0292 21.3053C37.9409 21.3053 40.8734 23.8585 40.8734 29.3443L40.8732 39.5847H34.9291V30.0295C34.9291 27.6295 34.0689 25.9918 31.9171 25.9918C30.2749 25.9918 29.2967 27.0958 28.8671 28.1623C28.7099 28.5444 28.6714 29.0768 28.6714 29.6106V39.5852H22.7264C22.7264 39.5852 22.8047 23.401 22.7264 21.7252H28.6714V24.2548C29.4602 23.0387 30.8733 21.3053 34.0292 21.3053Z" fill="white"/>
</g>
<defs>
<clipPath id="clip0_212_15">
<rect width="52.4596" height="52.4596" fill="white" transform="translate(0.89978)"/>
</clipPath>
</defs>
</svg>
