<svg width="68" height="40" viewBox="0 0 68 40" fill="none" xmlns="http://www.w3.org/2000/svg">
<g clip-path="url(#clip0_211_110)">
<path fill-rule="evenodd" clip-rule="evenodd" d="M3.54942 26.8616H9.30769V30H0V11.6667H3.54942V26.8616ZM17.7692 30V11.6667H21.1538V30H17.7692ZM35.5047 30L28.7692 11.6667H32.6255L36.7944 23.9524L40.9506 11.6667H44.8462L38.0713 30H35.5047ZM49.0769 20.6808C49.1017 18.4415 49.9199 16.406 51.5305 14.5738C53.1411 12.7416 55.4195 11.7728 58.3659 11.6667C61.3784 11.781 63.6823 12.7684 65.2762 14.6289C66.8704 16.4894 67.6755 18.5395 67.6923 20.7784C67.6587 23.2624 66.8097 25.3974 65.1448 27.1849C63.4796 28.9724 61.1867 29.9106 58.2659 30C55.253 29.8782 52.9705 28.8666 51.4179 26.9651C49.8656 25.0637 49.0853 22.9689 49.0769 20.6808ZM58.4659 15.2211C56.6549 15.2863 55.2488 15.8808 54.2471 17.0045C53.2457 18.1283 52.7365 19.3861 52.7201 20.7784C52.7365 22.1141 53.2522 23.3782 54.2658 24.5713C55.2801 25.7639 56.6801 26.4012 58.4659 26.4824C60.1766 26.4094 61.5288 25.7967 62.5221 24.6443C63.5151 23.4922 64.0244 22.2199 64.0496 20.8272C64.0412 19.4349 63.5552 18.1689 62.5909 17.0287C61.6273 15.889 60.2518 15.2863 58.4659 15.2211ZM38.257 0.341846L35.1531 3.44754L32.1161 0.383154L32.4624 0.0290843L35.1682 2.7647L37.912 0L38.257 0.341846ZM35.8255 4.12993L35.4742 3.78808L38.5852 0.67522L38.9231 1.01749L35.8255 4.12993ZM31.813 0.703082L34.8417 3.77464L31.7983 6.83102L28.7692 3.76031L31.813 0.703082ZM29.4463 3.76241L31.8 6.14859L34.1654 3.77295L31.8113 1.38593L29.4463 3.76241ZM32.1324 7.15858L35.1553 4.12116L38.1372 7.14509L37.7989 7.48525L35.1536 4.80401L32.4695 7.5L32.1324 7.15858ZM16.9231 39.9999V36.6668H18.6641V37.1229H17.3645V38.0986H18.6641V38.5571H17.3645V39.5501H18.6641V39.9999H16.9231ZM22.7501 38.2248L23.4952 36.6667H24.0008L22.9675 38.7756V39.9999H22.5261V38.7756L21.4997 36.6667H22.0068L22.7501 38.2248ZM26.8293 39.9999V36.6668H28.5704V37.1229H27.2708V38.0986H28.5704V38.5571H27.2708V39.5501H28.5704V39.9999H26.8293ZM34.156 39.061L34.873 36.6669H35.324L34.3167 40H33.955L33.3956 37.6438L32.8206 40H32.4696L31.4691 36.6669H31.9113L32.6229 39.0693L33.1979 36.6669H33.5887L34.156 39.061ZM38.1992 39.9999V36.6668H39.9399V37.1229H38.6403V38.0986H39.9399V38.5571H38.6403V39.5501H39.9399V39.9999H38.1992ZM44.0348 36.6667H44.4976L45.751 39.9998H45.2638L44.8982 39.0055H43.6177L43.2518 39.9998H42.7886L44.0348 36.6667ZM43.7803 38.5668H44.7418L44.2622 37.2514L43.7803 38.5668ZM50.0092 38.7358L50.7692 39.9999H50.2305L49.2293 38.3163H49.6822C49.8669 38.3096 50.0034 38.2505 50.0973 38.1349C50.1942 38.0157 50.2412 37.8859 50.2412 37.7383C50.2419 37.5734 50.1908 37.4345 50.0843 37.3122C49.9806 37.1935 49.8123 37.1295 49.5841 37.1228H49.0358V39.9999H48.5947V36.6667H49.6372C49.9588 36.6731 50.2183 36.7764 50.4106 36.9749C50.6033 37.1733 50.7032 37.4326 50.7078 37.7458C50.7093 37.9684 50.6445 38.185 50.5144 38.3901C50.3999 38.5716 50.2301 38.6876 50.0092 38.7358ZM0 4.16667V3.33333H27.0769V4.16667H0ZM0 39.1667V38.3333H13.5385V39.1667H0ZM53.3077 39.1667V38.3333H66.8462V39.1667H53.3077ZM39.7692 4.16667V3.33333H66.8462V4.16667H39.7692Z" fill="white"/>
</g>
<defs>
<clipPath id="clip0_211_110">
<rect width="67.6923" height="40" fill="white"/>
</clipPath>
</defs>
</svg>
