<svg width="90" height="41" viewBox="0 0 90 41" fill="none" xmlns="http://www.w3.org/2000/svg">
<path d="M33.4361 2.94599C26.4407 1.6645 20.4074 3.47479 15.5795 8.67325C12.1097 12.4111 10.5578 16.9614 10.9087 22.0234C11.2939 27.5971 13.7994 32.1516 18.3303 35.4993C22.8547 38.8427 27.956 39.8022 33.477 38.7147C29.9233 40.4483 26.1651 41.0517 22.2477 40.5826C18.3367 40.1135 14.8369 38.6252 11.8256 36.1048C3.13621 28.821 2.71218 17.0019 8.34296 9.29374C14.8713 0.355291 25.9348 -0.75775 33.4361 2.94599Z" fill="white"/>
<path d="M90 26.6035C88.7107 26.6035 87.4214 26.6077 86.1299 26.595C86.0524 26.595 85.9254 26.4734 85.9082 26.3903C85.7748 25.7484 85.6413 25.1045 85.5466 24.4563C85.4132 23.5373 85.355 22.6055 85.185 21.6929C84.9547 20.4583 84.2272 19.6715 82.8948 19.6438C81.3924 19.6118 79.89 19.6374 78.3596 19.6374C78.3596 21.921 78.3596 24.2388 78.3596 26.58C77.0316 26.58 75.7315 26.58 74.4013 26.58C74.4013 20.6076 74.4013 14.6202 74.4013 8.58582C74.5369 8.58582 74.6768 8.58582 74.8167 8.58582C77.9829 8.58582 81.1513 8.5645 84.3176 8.59649C85.6176 8.60928 86.8101 8.99095 87.8174 9.86731C88.8915 10.8013 89.421 11.9612 89.4511 13.3642C89.4705 14.2342 89.3887 15.0722 89.0293 15.891C88.5902 16.891 87.8519 17.5499 86.8747 17.987C86.8316 18.0062 86.7886 18.0232 86.7455 18.0446C86.7154 18.0595 86.6874 18.0829 86.6551 18.1043C87.7916 18.4241 88.5041 19.1939 88.8485 20.2536C89.068 20.9253 89.1326 21.6524 89.2251 22.3603C89.3672 23.4349 89.4511 24.516 89.6061 25.5885C89.6556 25.919 89.8515 26.2346 90 26.6035ZM78.3682 16.7012C79.156 16.7012 79.9266 16.7098 80.6972 16.6991C81.6464 16.6842 82.6021 16.7034 83.5448 16.616C84.4338 16.5328 85.0709 16.0296 85.2991 15.1426C85.3895 14.7929 85.3744 14.4155 85.3938 14.0508C85.4756 12.5497 84.3929 11.765 83.0584 11.7437C81.6206 11.7203 80.1806 11.7395 78.7427 11.7395C78.6158 11.7395 78.4888 11.7395 78.3682 11.7395C78.3682 13.4176 78.3682 15.0423 78.3682 16.7012Z" fill="white"/>
<path d="M50.2121 8.59644C51.5876 8.59644 52.9027 8.59644 54.2652 8.59644C54.2652 8.73504 54.2652 8.86298 54.2652 8.98878C54.2652 12.6754 54.2889 16.3621 54.2544 20.0467C54.2415 21.4923 53.9789 22.9124 53.1438 24.147C52.2182 25.5138 50.8622 26.2643 49.2801 26.678C47.9736 27.0192 46.6391 27.0106 45.3132 26.9467C44.1746 26.8912 43.0596 26.6226 42.0329 26.1002C40.4056 25.2707 39.366 23.9615 38.9786 22.1875C38.8408 21.5584 38.7612 20.9017 38.759 20.2578C38.7397 16.5242 38.7483 12.7906 38.7483 9.05488C38.7483 8.91202 38.7483 8.77129 38.7483 8.6071C40.0957 8.6071 41.4194 8.6071 42.8013 8.6071C42.8013 8.73504 42.8013 8.87364 42.8013 9.0101C42.8013 12.8034 42.7841 16.5988 42.8099 20.3921C42.8185 21.7887 43.3932 22.8804 44.8052 23.3858C45.0592 23.4775 45.324 23.5606 45.5887 23.5862C46.6369 23.6886 47.683 23.6736 48.6645 23.2301C49.4093 22.8932 49.8118 22.2514 49.9775 21.4923C50.1088 20.8846 50.1971 20.2556 50.2014 19.6373C50.2229 16.1062 50.2121 12.5752 50.2121 9.04635C50.2121 8.90349 50.2121 8.76276 50.2121 8.59644Z" fill="white"/>
<path d="M72.7482 26.6034C71.4094 26.6034 70.0813 26.6076 68.7511 26.5927C68.6585 26.5906 68.5208 26.4541 68.4842 26.3518C68.0688 25.1918 67.6663 24.0297 67.2659 22.8634C67.2142 22.7141 67.197 22.5777 66.9775 22.5777C64.8143 22.5841 62.6511 22.5819 60.462 22.5819C60.0165 23.8336 59.5688 25.0767 59.134 26.3241C59.0737 26.4989 59.0307 26.6098 58.809 26.6076C57.539 26.597 56.2712 26.6034 54.941 26.6034C55.1218 26.1108 55.2897 25.646 55.4662 25.1833C56.0582 23.6395 56.6544 22.0979 57.2463 20.5541C58.23 17.9933 59.2158 15.4324 60.1973 12.8716C60.7096 11.5368 61.2176 10.1999 61.7105 8.85658C61.7858 8.65402 61.8654 8.57725 62.085 8.57939C63.2817 8.59005 64.4785 8.59005 65.6753 8.57939C65.8948 8.57725 66.0089 8.65615 66.0799 8.84379C66.8569 10.9312 67.6275 13.0209 68.4153 15.1041C69.315 17.4837 70.2298 19.8569 71.1338 22.2365C71.6719 23.6502 72.2014 25.066 72.7331 26.4818C72.7439 26.5096 72.7417 26.5458 72.7482 26.6034ZM66.095 19.5669C65.3502 17.4197 64.6206 15.3109 63.8543 13.0997C63.0622 15.3066 62.3002 17.4261 61.5318 19.5669C63.0643 19.5669 64.5495 19.5669 66.095 19.5669Z" fill="white"/>
<path d="M37.5644 23.2238C37.5644 24.3731 37.5644 25.467 37.5644 26.5843C33.2768 26.5843 29.0042 26.5843 24.7036 26.5843C24.7036 20.599 24.7036 14.6138 24.7036 8.60718C26.0338 8.60718 27.3576 8.60718 28.7222 8.60718C28.7222 13.473 28.7222 18.3346 28.7222 23.226C31.6797 23.2238 34.6005 23.2238 37.5644 23.2238Z" fill="white"/>
<path d="M18.0634 40.3677C10.4114 39.2376 3.05012 32.7556 1.75865 23.7745C0.996689 18.4673 2.15686 13.5716 5.32525 9.22175C8.47857 4.88899 12.7727 2.25778 18.0978 1.2876C12.4067 3.3431 8.18799 7.03192 5.72991 12.5204C3.27397 18.0046 3.2546 23.5911 5.69547 29.0881C8.14494 34.5957 12.3572 38.3037 18.0634 40.3677Z" fill="white"/>
<path d="M10.5793 38.3424C5.19822 35.6707 -0.39167 29.0756 0.0215979 19.8237C0.195946 15.9537 1.46158 12.4141 3.73671 9.25624C5.57059 6.71031 7.90599 4.71238 10.6116 3.29443C9.60426 4.10469 8.49145 4.9384 7.44967 5.85314C6.38206 6.78921 5.45005 7.85747 4.63428 9.02595C3.82926 10.1816 3.13403 11.3928 2.56578 12.6785C1.99969 13.9621 1.57135 15.2841 1.28723 16.6552C1.00311 18.039 0.86105 19.4314 0.863202 20.8451C0.865354 22.2588 1.00742 23.649 1.29369 25.0329C1.57566 26.406 2.0126 27.728 2.55932 29.0138C3.1082 30.3059 3.82065 31.5149 4.63212 32.66C5.4522 33.8178 6.35623 34.9138 7.4303 35.8456C8.49145 36.7646 9.63009 37.5962 10.5793 38.3424Z" fill="white"/>
<path d="M38.0832 32.48C38.0832 33.1943 38.0832 33.8255 38.0832 34.4801C37.9024 34.4801 37.7388 34.4801 37.5472 34.4801C37.5472 32.6719 37.5472 30.8531 37.5472 29.0065C37.6871 29.0065 37.8335 29.0065 38.0143 29.0065C38.0143 29.175 38.0143 29.3349 38.0143 29.5822C38.3415 29.0918 38.7676 28.9063 39.2455 28.8445C39.7362 28.7805 40.1926 28.9085 40.5865 29.207C40.9847 29.5119 41.1741 29.949 41.243 30.4181C41.3613 31.2198 41.3118 32.0002 40.7285 32.6484C40.1 33.3414 38.7052 33.318 38.0832 32.48ZM40.735 30.9895C40.7027 30.7699 40.6812 30.5482 40.6338 30.3307C40.5154 29.7976 40.0484 29.3669 39.5791 29.3328C38.886 29.2837 38.3565 29.5652 38.1865 30.1814C38.0789 30.5716 38.0423 31.0109 38.1025 31.4096C38.2855 32.6165 39.3058 32.9278 40.0699 32.48C40.6058 32.1666 40.7135 31.5823 40.735 30.9895Z" fill="white"/>
<path d="M50.6491 31.0674C50.6061 30.1126 50.9074 29.4029 51.7404 29.0192C52.9458 28.4651 54.3276 29.1429 54.4761 30.6284C54.5106 30.9758 54.4654 31.3381 54.4073 31.6833C54.2953 32.3547 53.8713 32.8129 53.2385 33.0282C52.4916 33.2818 51.7555 33.1795 51.1894 32.6126C50.7589 32.1842 50.5716 31.6151 50.6491 31.0674ZM54.0091 30.9885C53.8692 30.5964 53.7852 30.2277 53.6087 29.9059C53.2471 29.2452 52.285 29.1493 51.7253 29.6458C51.099 30.2 50.9935 31.3018 51.4434 32.0094C51.9965 32.8769 53.1416 32.8939 53.6173 32.0371C53.796 31.7196 53.8778 31.3509 54.0091 30.9885Z" fill="white"/>
<path d="M24.7101 31.6555C24.8737 31.6555 25.0372 31.6555 25.2288 31.6555C25.2719 32.1414 25.5086 32.5165 25.9994 32.6145C26.4557 32.704 26.9335 32.7211 27.2973 32.3119C27.5405 32.037 27.4867 31.5915 27.1402 31.4615C26.6451 31.2761 26.1285 31.1503 25.6249 30.9884C25.0351 30.7987 24.822 30.5323 24.822 30.0122C24.8241 29.4645 25.0631 29.1619 25.6442 28.9764C26.3395 28.7527 27.0024 28.7356 27.5621 29.2983C27.801 29.5391 27.8914 29.8289 27.8462 30.1721C27.5427 30.219 27.3167 30.2531 27.2392 29.8439C27.1725 29.4965 26.8173 29.3792 26.4901 29.3409C26.1285 29.2983 25.7497 29.3281 25.5065 29.635C25.3106 29.8822 25.2869 30.2531 25.7131 30.4172C26.1048 30.5685 26.5267 30.6474 26.9271 30.7838C27.1811 30.8711 27.4415 30.9692 27.6568 31.1226C28.3133 31.5873 28.0786 32.7339 27.2478 32.996C26.587 33.2049 25.9456 33.2262 25.3192 32.8809C24.8909 32.6465 24.6498 32.1797 24.7101 31.6555Z" fill="white"/>
<path d="M86.1815 31.6492C86.3967 31.6492 86.5517 31.6492 86.7347 31.6492C86.8014 32.0798 86.98 32.4442 87.4471 32.5785C87.8862 32.7064 88.4588 32.6936 88.7838 32.3462C89.0658 32.0435 89.0249 31.5917 88.6396 31.4468C88.1445 31.2613 87.6258 31.1441 87.1221 30.9822C86.556 30.8031 86.3386 30.5133 86.3429 29.9868C86.3472 29.4711 86.6034 29.1514 87.1522 28.9745C87.8475 28.7486 88.5083 28.7315 89.0744 29.2835C89.3197 29.5222 89.4123 29.8121 89.3693 30.1616C89.083 30.2106 88.8505 30.2746 88.7709 29.8526C88.7063 29.5094 88.3555 29.3773 88.0283 29.3389C87.6559 29.2942 87.2728 29.3198 87.0145 29.6458C86.7992 29.9186 86.8789 30.2682 87.219 30.4067C87.6064 30.5665 88.0261 30.6518 88.4308 30.7754C88.5987 30.8266 88.773 30.8713 88.9323 30.9459C89.4102 31.1761 89.5759 31.5576 89.535 32.0819C89.5006 32.5295 89.2186 32.7895 88.8785 32.9365C88.1854 33.237 87.4751 33.2456 86.7928 32.8513C86.33 32.5891 86.2568 32.1437 86.1815 31.6492Z" fill="white"/>
<path d="M76.0867 28.9766C76.3988 28.9766 76.6592 28.9766 76.9455 28.9766C76.9455 29.1259 76.9455 29.2474 76.9455 29.3967C76.6786 29.3967 76.416 29.3967 76.0996 29.3967C76.0996 29.9169 76.0931 30.4137 76.1017 30.9106C76.1082 31.3498 76.1319 31.7891 76.1448 32.2262C76.1534 32.5204 76.3105 32.6121 76.5882 32.5759C76.7044 32.5609 76.8228 32.5737 76.9563 32.5737C76.9563 32.7486 76.9563 32.8872 76.9563 33.0663C76.6872 33.0663 76.4246 33.0855 76.1642 33.062C75.7939 33.03 75.6067 32.7934 75.6045 32.384C75.6002 31.4074 75.6024 30.4287 75.6024 29.4116C75.3548 29.4116 75.1331 29.4116 74.8942 29.4116C74.8942 29.2581 74.8942 29.1429 74.8942 28.9894C75.1181 28.9894 75.3398 28.9894 75.6002 28.9894C75.6002 28.5651 75.6002 28.177 75.6002 27.7761C75.7789 27.7761 75.9188 27.7761 76.0845 27.7761C76.0867 28.1642 76.0867 28.5437 76.0867 28.9766Z" fill="white"/>
<path d="M64.0222 28.9894C64.1793 28.9894 64.3106 28.9894 64.4742 28.9894C64.4742 29.2281 64.4742 29.4626 64.4742 29.8164C64.8746 29.1599 65.3567 28.8466 66.0649 28.9212C66.0649 29.096 66.0649 29.2686 66.0649 29.4626C65.3309 29.4605 64.81 29.7759 64.6055 30.492C64.5539 30.6689 64.5711 30.8692 64.5689 31.0568C64.5646 31.6876 64.5668 32.3185 64.5668 32.9707C64.3752 32.9707 64.2116 32.9707 64.0222 32.9707C64.0222 31.6621 64.0222 30.3428 64.0222 28.9894Z" fill="white"/>
</svg>
