<svg width="80" height="80" viewBox="0 0 80 80" fill="none" xmlns="http://www.w3.org/2000/svg">
<path d="M40 6.66669C21.6334 6.66669 6.66669 21.6334 6.66669 40C6.66669 58.3667 21.6334 73.3334 40 73.3334C44.6 73.3334 48.3334 69.6 48.3334 65C48.3334 62.9667 47.5667 61 46.2 59.4334C45.9334 59.1 45.7667 58.7334 45.7667 58.3334C45.7667 57.4 46.5 56.6667 47.4333 56.6667H53.3334C64.3667 56.6667 73.3334 47.7 73.3334 36.6667C73.3334 20.1334 58.3667 6.66669 40 6.66669ZM58.3334 43.3334C55.5667 43.3334 53.3334 41.1 53.3334 38.3334C53.3334 35.5667 55.5667 33.3334 58.3334 33.3334C61.1 33.3334 63.3334 35.5667 63.3334 38.3334C63.3334 41.1 61.1 43.3334 58.3334 43.3334ZM48.3334 30C45.5667 30 43.3334 27.7667 43.3334 25C43.3334 22.2334 45.5667 20 48.3334 20C51.1 20 53.3334 22.2334 53.3334 25C53.3334 27.7667 51.1 30 48.3334 30ZM16.6667 38.3334C16.6667 35.5667 18.9 33.3334 21.6667 33.3334C24.4334 33.3334 26.6667 35.5667 26.6667 38.3334C26.6667 41.1 24.4334 43.3334 21.6667 43.3334C18.9 43.3334 16.6667 41.1 16.6667 38.3334ZM36.6667 25C36.6667 27.7667 34.4334 30 31.6667 30C28.9 30 26.6667 27.7667 26.6667 25C26.6667 22.2334 28.9 20 31.6667 20C34.4334 20 36.6667 22.2334 36.6667 25Z" fill="#FFFFFF"/>
</svg>
