<svg width="153" height="40" viewBox="0 0 153 40" fill="none" xmlns="http://www.w3.org/2000/svg">
<g clip-path="url(#clip0_211_108)">
<path d="M9.63855 31.231C5.79709 31.231 3.23729 30.6583 1.25719 29.8655C1.18425 29.8367 1.12011 29.7893 1.07111 29.7281C1.02211 29.6668 0.98995 29.5938 0.977815 29.5163L-0.00699376 23.81C-0.0161318 23.7443 -0.0108628 23.6774 0.00844769 23.6139C0.0277582 23.5504 0.0606481 23.4919 0.104836 23.4424C0.149024 23.3929 0.203452 23.3536 0.264344 23.3272C0.325237 23.3008 0.391137 23.288 0.457473 23.2897C0.542331 23.2893 0.625731 23.3117 0.698874 23.3548C0.772017 23.3978 0.832191 23.4598 0.873048 23.5341L1.57149 24.8402C3.57254 28.5175 6.03806 30.1135 9.99126 30.1135C14.5032 30.1135 17.0595 27.9867 17.0595 24.4875C17.0595 21.3864 15.1982 19.7905 9.80268 18.0199C3.71223 16.0258 0.68796 13.8118 0.68796 8.8074C0.68796 3.80304 5.50025 0.132705 11.4685 0.132705C15.0375 0.132705 17.1538 0.583202 19.1269 1.32356C19.2013 1.35182 19.267 1.39883 19.3178 1.46002C19.3686 1.52122 19.4027 1.59451 19.4168 1.67278L20.4051 7.641C20.4137 7.7063 20.4081 7.77269 20.3885 7.83558C20.3689 7.89847 20.3359 7.95634 20.2917 8.00518C20.2475 8.05403 20.1932 8.09267 20.1326 8.11843C20.072 8.14419 20.0065 8.15645 19.9406 8.15436H19.9022C19.8149 8.15586 19.729 8.13274 19.6543 8.08766C19.5795 8.04257 19.519 7.97733 19.4796 7.89942L18.8022 6.55841C16.9862 2.88109 14.6639 1.25022 11.1193 1.25022C7.40003 1.25022 5.21389 3.37349 5.21389 6.38729C5.21389 9.5303 6.98096 10.9481 12.0971 12.5895C18.7952 14.7163 21.6309 17.1503 21.6309 22.0674C21.6378 27.5537 16.1516 31.231 9.63855 31.231ZM46.1079 31.3637C36.6195 31.3637 29.9214 25.4269 29.9214 15.6836C29.9214 6.0241 36.8046 0 46.1079 0C55.5963 0 62.2944 5.93679 62.2944 15.6836C62.2944 25.3466 55.3623 31.3637 46.1079 31.3637ZM45.3152 1.10704C39.3784 1.10704 36.155 5.99616 36.155 14.3985C36.155 23.7891 40.0594 30.2567 46.8517 30.2567C52.8514 30.2567 56.0608 25.3676 56.0608 16.9653C56.0608 7.57465 52.153 1.10704 45.3152 1.10704ZM102.665 0.869565C102.666 0.953271 102.637 1.03458 102.583 1.09868C102.529 1.16278 102.454 1.2054 102.371 1.21879L102.245 1.24673C99.3609 1.86485 98.432 2.79728 98.3831 8.06705L98.2469 19.8498C98.1526 27.0264 93.9654 31.3218 85.4549 31.3218C76.7243 31.3218 72.8025 27.0683 72.8025 20.0698V8.02165C72.8025 2.88458 72.338 1.68675 70.1065 1.38642L68.8877 1.20831C68.8007 1.20044 68.7197 1.16021 68.6609 1.09555C68.602 1.03089 68.5696 0.946512 68.5699 0.859089C68.5698 0.810779 68.5796 0.762963 68.5989 0.718664C68.6182 0.674364 68.6464 0.634545 68.6819 0.601723C68.7173 0.568901 68.7592 0.543791 68.8048 0.52798C68.8505 0.512169 68.8989 0.506001 68.9471 0.509866C70.3614 0.509866 73.9864 0.859089 75.5404 0.859089C77.0945 0.859089 81.334 0.509866 82.8008 0.509866C82.8486 0.506506 82.8967 0.51305 82.9419 0.52909C82.9872 0.545129 83.0286 0.57032 83.0637 0.603089C83.0987 0.635859 83.1267 0.675503 83.1457 0.719549C83.1648 0.763595 83.1745 0.811096 83.1744 0.859089C83.1748 0.946512 83.1423 1.03089 83.0835 1.09555C83.0247 1.16021 82.9437 1.20044 82.8566 1.20831L81.3166 1.42832C78.7114 1.77755 78.2923 2.71346 78.2923 8.11943V20.1083C78.2923 26.6632 81.5925 29.4116 87.3162 29.4116C93.04 29.4116 96.7103 26.087 96.616 19.7975L96.4763 8.01467C96.4309 2.8322 95.4531 1.72865 92.4777 1.28165L91.8666 1.19434C91.7795 1.18648 91.6986 1.14624 91.6397 1.08158C91.5809 1.01692 91.5484 0.932543 91.5488 0.84512C91.5486 0.79681 91.5585 0.748994 91.5778 0.704695C91.5971 0.660395 91.6253 0.620576 91.6607 0.587754C91.6962 0.554932 91.7381 0.529822 91.7837 0.514011C91.8294 0.4982 91.8778 0.492032 91.926 0.495897C93.1482 0.495897 95.8547 0.84512 97.3878 0.84512C98.9209 0.84512 101.104 0.495897 102.277 0.495897C102.325 0.492032 102.374 0.4982 102.419 0.514011C102.465 0.529822 102.507 0.554932 102.542 0.587754C102.578 0.620576 102.606 0.660395 102.625 0.704695C102.644 0.748994 102.654 0.79681 102.654 0.84512L102.665 0.869565ZM152.457 37.098C152.481 37.1424 152.497 37.1914 152.502 37.242C152.507 37.2926 152.502 37.3438 152.487 37.3924C152.472 37.441 152.448 37.4861 152.415 37.5249C152.382 37.5637 152.342 37.5955 152.296 37.6183C149.384 39.1828 146.984 40 143.852 40C139.242 40 134.584 38.3901 124.254 31.4929C124.08 31.3796 123.88 31.3134 123.674 31.3009C114.961 30.7805 108.877 24.959 108.877 15.6836C108.877 6.0241 115.76 0 125.064 0C134.552 0 141.247 5.93679 141.247 15.6836C141.247 22.703 137.597 27.7807 132.104 30.0332C132.043 30.0563 131.99 30.0947 131.948 30.1446C131.906 30.1946 131.879 30.2545 131.867 30.3184C131.855 30.3824 131.861 30.4482 131.882 30.5096C131.903 30.571 131.94 30.6258 131.989 30.6688C139.232 37.1364 142.162 38.4949 145.853 38.4949C148.067 38.4949 149.646 37.9745 151.919 36.9303C152.013 36.8865 152.121 36.8793 152.22 36.9103C152.32 36.9413 152.404 37.0082 152.457 37.098ZM124.267 1.10704C118.313 1.10704 115.107 5.99616 115.107 14.3985C115.107 23.7891 119.012 30.2567 125.804 30.2567C131.804 30.2567 135.013 25.3676 135.013 16.9653C135.017 7.57465 131.109 1.10704 124.267 1.10704Z" fill="white"/>
</g>
<defs>
<clipPath id="clip0_211_108">
<rect width="152.502" height="40" fill="white"/>
</clipPath>
</defs>
</svg>
