<svg width="80" height="80" viewBox="0 0 80 80" fill="none" xmlns="http://www.w3.org/2000/svg">
<path d="M53.0134 43.8456L45.9424 50.9272L65.9297 70.9446L73.0007 63.8629L53.0134 43.8456Z" fill="#FFFFFF"/>
<path d="M58.3333 33.6618C64.7667 33.6618 70 28.4207 70 21.9777C70 20.0415 69.4667 18.2388 68.6333 16.6364L59.6333 25.6499L54.6667 20.6758L63.6667 11.6623C62.0667 10.8277 60.2667 10.2936 58.3333 10.2936C51.9 10.2936 46.6667 15.5348 46.6667 21.9777C46.6667 23.3464 46.9333 24.6484 47.3667 25.8502L41.2 32.0261L35.2667 26.0838L37.6333 23.7136L32.9333 19.0066L40 11.9294C36.1 8.02354 29.7667 8.02354 25.8667 11.9294L14.0667 23.747L18.7667 28.4541H9.36667L7 30.8243L18.8 42.6419L21.1667 40.2717V30.8243L25.8667 35.5313L28.2333 33.1611L34.1667 39.1033L9.46667 63.8402L16.5333 70.9175L54.4667 32.9608C55.6667 33.3948 56.9667 33.6618 58.3333 33.6618Z" fill="#FFFFFF"/>
</svg>
